<?xml version="1.0" encoding="UTF-8" standalone="no"?>
<svg width="112px" height="112px" viewBox="0 0 112 112" version="1.1" xmlns="http://www.w3.org/2000/svg" xmlns:xlink="http://www.w3.org/1999/xlink">
    <!-- Generator: Sketch 39.1 (31720) - http://www.bohemiancoding.com/sketch -->
    <title>Angry</title>
    <desc>Created with Sketch.</desc>
    <defs>
        <radialGradient cx="50%" cy="3.46505301%" fx="50%" fy="3.46505301%" r="84.992327%" id="radialGradient-1">
            <stop stop-color="#C6565C" offset="0%"></stop>
            <stop stop-color="#FFE060" offset="100%"></stop>
        </radialGradient>
    </defs>
    <g id="Page-1" stroke="none" stroke-width="1" fill="none" fill-rule="evenodd">
        <g id="Emoji" transform="translate(-440.000000, -335.000000)">
            <g id="Emojis" transform="translate(164.000000, 154.000000)">
                <g id="Sad-+-Angry" transform="translate(84.000000, 181.000000)">
                    <g id="Angry" transform="translate(192.000000, 0.000000)">
                        <circle id="Face" fill="url(#radialGradient-1)" cx="56" cy="56" r="56"></circle>
                        <g id="Eye" transform="translate(14.000000, 62.000000)">
                            <circle fill="#211D12" cx="17.5" cy="9.5" r="5.5"></circle>
                            <path d="M35.5,8 C28.5,8 6.5,6 0.5,0" id="Eyebrow" stroke="#211D12" stroke-width="5" stroke-linecap="round" stroke-linejoin="round"></path>
                        </g>
                        <g id="Eye" transform="translate(80.000000, 69.500000) scale(-1, 1) translate(-80.000000, -69.500000) translate(62.000000, 62.000000)">
                            <circle fill="#211D12" cx="17.5" cy="9.5" r="5.5"></circle>
                            <path d="M35.5,8 C28.5,8 6.5,6 0.5,0" id="Eyebrow" stroke="#211D12" stroke-width="5" stroke-linecap="round" stroke-linejoin="round"></path>
                        </g>
                        <path d="M56,94 C69,94 74,93.8333333 74,91 C74,88.1666667 65.9411255,86 56,86 C46.0588745,86 38,88.1666667 38,91 C38,93.8333333 43,94 56,94 Z" id="Mouth" fill="#311E2D"></path>
                    </g>
                </g>
            </g>
        </g>
    </g>
</svg>